<svg id="Capa_1" enable-background="new 0 0 512 512" height="512" viewBox="0 0 512 512" width="512" xmlns="http://www.w3.org/2000/svg"><path d="m271.197 395.012h-63.163c-4.143 0-7.5-3.357-7.5-7.5s3.357-7.5 7.5-7.5h63.163c4.143 0 7.5 3.357 7.5 7.5 0 4.142-3.357 7.5-7.5 7.5z" fill="#4e5660"/><path d="m271.197 326.645h-63.163c-4.143 0-7.5-3.357-7.5-7.5 0-4.142 3.357-7.5 7.5-7.5h63.163c4.143 0 7.5 3.358 7.5 7.5s-3.357 7.5-7.5 7.5z" fill="#4e5660"/><path d="m271.197 258.277h-63.163c-4.143 0-7.5-3.357-7.5-7.5s3.357-7.5 7.5-7.5h63.163c4.143 0 7.5 3.357 7.5 7.5s-3.357 7.5-7.5 7.5z" fill="#4e5660"/><path d="m271.197 435.79c-4.143 0-7.5-3.357-7.5-7.5v-245.244c0-4.143 3.357-7.5 7.5-7.5s7.5 3.357 7.5 7.5v245.244c0 4.143-3.357 7.5-7.5 7.5z" fill="#9aa3b1"/><path d="m208.034 435.79c-4.143 0-7.5-3.357-7.5-7.5v-245.244c0-4.143 3.357-7.5 7.5-7.5s7.5 3.357 7.5 7.5v245.244c0 4.143-3.357 7.5-7.5 7.5z" fill="#9aa3b1"/><path d="m450.444 456.703c-4.143 0-7.5-3.357-7.5-7.5v-184.593c0-4.143 3.357-7.5 7.5-7.5s7.5 3.357 7.5 7.5v184.593c0 4.143-3.357 7.5-7.5 7.5z" fill="#4e5660"/><path d="m460.406 428.29h-19.923c-4.893 0-8.859 3.966-8.859 8.859v32.513c0 4.893 3.966 8.859 8.859 8.859h19.923c4.893 0 8.859-3.966 8.859-8.859v-32.513c0-4.892-3.966-8.859-8.859-8.859z" fill="#c6c6c6"/><path d="m272.467 131.08h49.632v333.656h-49.632z" fill="#8eafe2" transform="matrix(.94 -.342 .342 .94 -83.962 119.642)"/><path d="m-26.985 273.092h333.657v49.632h-333.657z" fill="#8eafe2" transform="matrix(.342 -.94 .94 .342 -187.928 327.434)"/><path d="m141.859 219.814h52.817l25.546-70.186-46.64-16.974z" fill="#6a96d7"/><path d="m263.545 132.654-46.639 16.974 25.545 70.186h52.817z" fill="#6a96d7"/><path d="m103.622 284.297h-66.781c-20.347 0-36.841 16.494-36.841 36.841v107.152h196.902l-36.524-103.798c-8.475-24.082-31.225-40.195-56.756-40.195z" fill="#c6c6c6"/><path d="m76.143 284.297h-39.302c-20.347 0-36.841 16.494-36.841 36.841v107.152h96.823c-16.353-42.955-23.598-98.539-20.68-143.993z" fill="#9aa3b1"/><path d="m407.672 183.046h-274.927c-16.624 0-30.1-13.476-30.1-30.1v-43.017c0-16.624 13.476-30.1 30.1-30.1h274.927z" fill="#c6c6c6"/><path d="m390.83 176.231 35.132 112.802c2.575 8.267 10.227 13.898 18.885 13.898h16.78c7.867 0 14.964-4.664 18.13-11.866 15.635-35.558 32.243-101.34 32.243-149.028 0-38.628-17.269-77.883-26.951-96.856-3.67-7.192-11.07-11.703-19.144-11.703h-24.389c-7.034 0-13.623 3.439-17.645 9.209l-27.274 39.13c-5.018 7.199-7.708 15.764-7.708 24.539v57.113c0 4.328.655 8.63 1.941 12.762z" fill="#e8899e"/><path d="m461.628 302.932c7.867 0 14.964-4.664 18.13-11.866 2.068-4.703 4.152-9.948 6.213-15.597-47.969-45.661-73.06-161.197-68.575-223.492l-20.799 29.841c-5.018 7.199-7.708 15.764-7.708 24.539v57.113c0 4.327.654 8.629 1.941 12.761l35.132 112.802c2.575 8.267 10.227 13.898 18.885 13.898h16.781z" fill="#de5c6e"/><path d="m410.967 240.885 14.996 48.148c2.575 8.267 10.227 13.898 18.885 13.898h16.78c7.867 0 14.964-4.664 18.13-11.866 5.86-13.329 11.857-30.904 17.065-50.181h-85.856z" fill="#f7ef87"/><path d="m410.967 240.885 14.996 48.148c2.575 8.267 10.227 13.898 18.885 13.898h16.78c7.867 0 14.964-4.664 18.13-11.866 5.86-13.329 11.857-30.904 17.065-50.181h-85.856z" fill="#f7ef87"/><path d="m461.628 302.932c7.867 0 14.964-4.664 18.13-11.866 2.068-4.704 4.153-9.946 6.215-15.596-9.543-9.084-18.177-20.939-25.857-34.585h-49.15l14.996 48.148c2.575 8.267 10.227 13.898 18.885 13.898h16.781z" fill="#efd176"/><path d="m383.913 478.522h-366.656c-9.531 0-17.257-7.727-17.257-17.257v-32.975h383.913c9.531 0 17.257 7.726 17.257 17.257v15.717c0 9.531-7.726 17.258-17.257 17.258z" fill="#4e5660"/><path d="m96.823 428.29h-96.823v32.974c0 9.531 7.726 17.257 17.257 17.257h108.925c-11.77-12.257-21.59-29.821-29.359-50.231z" fill="#383c43"/><ellipse cx="177.656" cy="151.665" fill="#fff" rx="28.597" ry="22.773"/><ellipse cx="332.661" cy="151.665" fill="#fff" rx="28.597" ry="22.773"/><g fill="#4e5660"><path d="m194.322 136.446c-4.143 0-7.5-3.357-7.5-7.5v-10.099c0-4.143 3.357-7.5 7.5-7.5s7.5 3.357 7.5 7.5v10.099c0 4.143-3.357 7.5-7.5 7.5z"/><path d="m315.995 136.446c-4.143 0-7.5-3.357-7.5-7.5v-10.099c0-4.143 3.357-7.5 7.5-7.5s7.5 3.357 7.5 7.5v10.099c0 4.143-3.357 7.5-7.5 7.5z"/><path d="m255.158 144.201c-8.314 0-16.221-3.601-21.692-9.879-2.722-3.122-2.397-7.859.726-10.581 3.122-2.723 7.86-2.398 10.581.726 2.623 3.009 6.408 4.734 10.386 4.734s7.763-1.726 10.385-4.734c2.723-3.122 7.457-3.447 10.582-.727 3.122 2.722 3.448 7.459.727 10.582-5.473 6.279-13.379 9.879-21.695 9.879z"/><path d="m80.308 317.405c1.805-2.201 5.16-2.201 6.965 0 13.65 16.642 29.154 31.436 29.154 48.028 0 18.025-14.612 32.637-32.636 32.637-18.025 0-32.636-14.612-32.636-32.637-.001-16.592 15.503-31.386 29.153-48.028z"/></g><path d="m75.973 322.582c-12.396 14.586-24.819 27.999-24.819 42.851 0 18.025 14.612 32.637 32.636 32.637 1.168 0 2.321-.064 3.458-.184-6.225-24.148-10.027-50.245-11.275-75.304z" fill="#383c43"/><path d="m475.896 190.546h-15.096c-4.143 0-7.5-3.357-7.5-7.5s3.357-7.5 7.5-7.5h15.096c4.143 0 7.5 3.357 7.5 7.5s-3.358 7.5-7.5 7.5z" fill="#de5c6e"/><path d="m475.896 126.348h-15.096c-4.143 0-7.5-3.358-7.5-7.5 0-4.143 3.357-7.5 7.5-7.5h15.096c4.143 0 7.5 3.357 7.5 7.5 0 4.142-3.358 7.5-7.5 7.5z" fill="#de5c6e"/></svg>